<svg width="26" height="26" viewBox="0 0 26 26" fill="none" xmlns="http://www.w3.org/2000/svg">
<path d="M3.84908 20.4696L8.18242 22.6362C8.33281 22.7113 8.49859 22.7504 8.66667 22.7504C8.83475 22.7504 9.00053 22.7113 9.15092 22.6362L13 20.7112L16.8491 22.6352C16.9991 22.7113 17.165 22.7511 17.3332 22.7513C17.5015 22.7514 17.6674 22.712 17.8176 22.6362L22.1509 20.4696C22.5182 20.2854 22.75 19.9106 22.75 19.5V14.0833C22.75 13.6727 22.5182 13.2979 22.1509 13.1137L18.4167 11.2472V6.5C18.4167 6.08941 18.1848 5.71458 17.8176 5.53041L13.4843 3.36375C13.3337 3.28843 13.1678 3.24922 12.9995 3.24922C12.8312 3.24922 12.6652 3.28843 12.5147 3.36375L8.18133 5.53041C7.81517 5.71458 7.58333 6.08941 7.58333 6.5V11.2472L3.84908 13.1148C3.669 13.2045 3.51753 13.3427 3.41169 13.5138C3.30586 13.6849 3.24986 13.8821 3.25 14.0833V19.5C3.25 19.9106 3.48183 20.2854 3.84908 20.4696ZM8.66667 13.1278L11.1193 14.3542L7.96358 15.9326L5.51092 14.7062L8.66667 13.1278ZM13 10.4195L16.25 8.7945V11.2472L13 12.8722V10.4195ZM19.786 14.3542L16.6638 15.9152L14.2112 14.6889L17.3333 13.1278L19.786 14.3542ZM8.66667 20.4555L8.5995 20.4219V18.0375L11.9167 16.3778V18.8305L8.66667 20.4555ZM17.3333 20.4555V18.0028L20.5833 16.3778V18.8305L17.3333 20.4555ZM13 5.5445L15.4527 6.77083L12.3305 8.33191L9.87783 7.10558L13 5.5445Z" fill="#D5B5FF"/>
</svg>
