<svg width="26" height="26" viewBox="0 0 26 26" fill="none" xmlns="http://www.w3.org/2000/svg">
<g clip-path="url(#clip0_1_137)">
<path d="M8.80234 8.87974C8.08621 9.08185 7.51492 9.62681 7.27762 10.3342L4 20.1719L4.51855 20.6905L9.76035 15.4135C9.68652 15.1938 9.5934 14.9477 9.5934 14.6886C9.5934 13.757 10.3493 13.0015 11.2805 13.0015C12.2118 13.0015 12.9677 13.7573 12.9677 14.6886C12.9677 15.6199 12.2118 16.3758 11.2805 16.3758C11.0213 16.3758 10.7753 16.3142 10.5556 16.2088L5.27867 21.4506L5.82777 22L15.6645 18.7221C16.3718 18.4848 16.9168 17.9451 17.1189 17.1974L18.6218 11.8747L14.1535 7.40634L8.80234 8.87974ZM21.5043 6.60829L19.3904 4.49435C18.7312 3.83517 17.6593 3.83552 17.0004 4.49457L15.0145 6.48477L19.4828 10.9531L21.473 8.96715C22.1652 8.33833 22.1652 7.26747 21.5043 6.60829Z" fill="#D5B5FF"/>
</g>
<defs>
<clipPath id="clip0_1_137">
<rect width="18" height="18" fill="white" transform="translate(4 4)"/>
</clipPath>
</defs>
</svg>
