<svg width="26" height="26" viewBox="0 0 26 26" fill="none" xmlns="http://www.w3.org/2000/svg">
<path d="M22.0799 4.07257C22.0724 4.0363 22.0548 4.00292 22.029 3.97634C22.0033 3.94976 21.9705 3.93108 21.9345 3.92249C19.5351 3.33531 13.991 5.42775 10.9873 8.43294C10.4516 8.96483 9.96315 9.54244 9.52763 10.1592C8.60137 10.0772 7.67511 10.1457 6.88567 10.4901C4.6583 11.4713 4.00979 14.0316 3.82912 15.133C3.81888 15.1933 3.82274 15.2551 3.84042 15.3137C3.85809 15.3722 3.88909 15.4258 3.93098 15.4703C3.97287 15.5149 4.02451 15.549 4.08183 15.5702C4.13915 15.5913 4.20059 15.5989 4.26133 15.5923L7.83815 15.1974C7.84071 15.4673 7.85698 15.7369 7.8869 16.0052C7.9049 16.1915 7.98752 16.3656 8.12042 16.4972L9.50551 17.8803C9.63718 18.0131 9.81105 18.0958 9.99711 18.114C10.2636 18.1439 10.5315 18.1601 10.7997 18.1628L10.4072 21.7384C10.4006 21.7991 10.4083 21.8606 10.4294 21.9179C10.4506 21.9753 10.4847 22.0269 10.5292 22.0688C10.5736 22.1107 10.6272 22.1417 10.6856 22.1595C10.7441 22.1772 10.8058 22.1811 10.866 22.171C11.9643 21.9946 14.5268 21.3455 15.5014 19.1161C15.8456 18.326 15.916 17.4034 15.8365 16.4808C16.4543 16.0449 17.0329 15.5559 17.5658 15.0194C20.5789 12.0188 22.6576 6.5935 22.0799 4.07257ZM14.5596 11.4398C14.2845 11.1646 14.0971 10.8139 14.0211 10.432C13.9451 10.0502 13.984 9.65441 14.1328 9.29469C14.2816 8.93498 14.5336 8.62751 14.857 8.41119C15.1804 8.19486 15.5606 8.0794 15.9496 8.0794C16.3386 8.0794 16.7188 8.19486 17.0422 8.41119C17.3656 8.62751 17.6177 8.93498 17.7665 9.29469C17.9153 9.65441 17.9541 10.0502 17.8782 10.432C17.8022 10.8139 17.6148 11.1646 17.3396 11.4398C17.1572 11.6226 16.9405 11.7677 16.702 11.8667C16.4635 11.9657 16.2078 12.0166 15.9496 12.0166C15.6914 12.0166 15.4358 11.9657 15.1972 11.8667C14.9587 11.7677 14.7421 11.6226 14.5596 11.4398Z" fill="#D5B5FF"/>
<path d="M9.62259 18.7115C9.39345 18.941 9.02591 19.0305 8.58352 19.1071C7.58961 19.2764 6.71195 18.4175 6.89049 17.4125C6.95865 17.0316 7.16019 16.4975 7.28563 16.3721C7.31305 16.3452 7.3313 16.3103 7.33779 16.2725C7.34428 16.2346 7.33868 16.1957 7.32178 16.1612C7.30488 16.1267 7.27755 16.0984 7.24367 16.0803C7.20978 16.0622 7.17106 16.0553 7.13301 16.0605C6.57721 16.1285 6.06013 16.3805 5.6641 16.7765C4.68106 17.7605 4.58823 21.4118 4.58823 21.4118C4.58823 21.4118 8.24107 21.3189 9.22411 20.3349C9.6212 19.9391 9.8735 19.4212 9.94038 18.8645C9.95585 18.6897 9.74302 18.5856 9.62259 18.7115Z" fill="#D5B5FF"/>
</svg>
