<svg width="26" height="26" viewBox="0 0 26 26" fill="none" xmlns="http://www.w3.org/2000/svg">
<path d="M13 1.04001C6.39444 1.04001 1.04 6.39445 1.04 13C1.04 19.6056 6.39444 24.96 13 24.96C19.6056 24.96 24.96 19.6056 24.96 13C24.96 6.39445 19.6056 1.04001 13 1.04001ZM17.3711 15.2698C16.8303 16.5547 15.8278 17.7315 13.9724 17.7315C13.9724 17.7315 13.1856 12.2491 13.1737 12.1233C13.1253 12.2554 12.0146 15.1377 12.0146 15.1377C11.492 16.4705 10.4952 17.7252 8.6398 17.7315L7.18692 8.86861C8.39384 8.86861 9.88312 9.85921 9.99128 11.4925C9.99128 11.4925 10.1774 14.741 10.1837 14.9994C10.2856 14.7233 11.5466 11.4566 11.5466 11.4566C12.0453 10.1176 12.988 8.86289 14.7592 8.86289C14.7592 8.86289 15.5158 14.7113 15.5459 14.9874C15.6239 14.7113 16.6629 11.4566 16.6629 11.4566C17.161 10.1176 18.1277 8.86289 19.9649 8.86289L17.3711 15.2698Z" fill="#D5B5FF"/>
</svg>
