<svg width="255" height="255" viewBox="0 0 255 255" fill="none" xmlns="http://www.w3.org/2000/svg">
<path d="M207 22V17H202H53H48V22V51.5429C48 53.596 48.4809 55.5655 49.3371 57.4117L49.37 57.4827L49.4052 57.5527C50.19 59.115 51.1734 60.5498 52.3471 61.8478L52.5236 62.0429L52.7196 62.2185C54.0232 63.3862 55.463 64.3634 57.0292 65.1428L57.2447 65.25L57.4694 65.336C59.3044 66.0384 61.2201 66.3905 63.1855 66.3905H145.844C145.431 66.9589 145.026 67.5327 144.627 68.1117L144.618 68.1248L144.609 68.1378C142.277 71.569 139.965 75.3741 137.67 79.5443L137.624 79.6289L137.58 79.7153L61.9163 230.761L58.2898 238H66.3867H99.2715C106.224 238 112.365 236.377 117.177 232.607C121.518 229.278 124.922 225.229 127.312 220.473L127.337 220.422L127.361 220.371L200.964 65.1766C202.226 62.66 203.5 59.6521 204.793 56.1875L204.801 56.1661L204.809 56.1446C206.343 51.9169 207 46.7393 207 40.8264V22Z" fill="white" stroke="black" stroke-width="10"/>
</svg>
